<svg xmlns="http://www.w3.org/2000/svg" xmlns:xlink="http://www.w3.org/1999/xlink" width="60.126" height="60.46" viewBox="0 0 60.126 60.46">
  <defs>
    <linearGradient id="linear-gradient" x1="0.5" x2="0.5" y2="1" gradientUnits="objectBoundingBox">
      <stop offset="0" stop-color="#ed6bfd"/>
      <stop offset="1" stop-color="#ab29fc"/>
    </linearGradient>
    <linearGradient id="linear-gradient-3" x1="0.942" x2="0.5" y2="1" gradientUnits="objectBoundingBox">
      <stop offset="0" stop-color="#fff0ff"/>
      <stop offset="1" stop-color="#febdfa"/>
    </linearGradient>
  </defs>
  <g id="chatbox-icon" transform="translate(2304.681 -127.632)">
    <rect id="background" width="60" height="60" transform="translate(-2304.681 127.632)" fill="#fff" opacity="0"/>
    <g id="icon" transform="translate(1331.201 4297.85)">
      <g id="bg" transform="translate(-3635.757 -4169.757)" fill="#fff" stroke="#707070" stroke-width="1" opacity="0">
        <rect width="60" height="60" stroke="none"/>
        <rect x="0.5" y="0.5" width="59" height="59" fill="none"/>
      </g>
      <g id="icon-2" data-name="icon" transform="translate(-3635.883 -4168.006)">
        <path id="Union_21" data-name="Union 21" d="M0,23.406V15.1l7,0,.006,9.468H5.492c-1.229,0-2.458,0-3.687.013H1.781A2.163,2.163,0,0,1,0,23.406Zm10.541,1.162q0-4.149.005-8.3c-.006-1.3-.008-2.6-.02-3.9a1.746,1.746,0,0,0-1.762-1.832,1.7,1.7,0,0,0-1.741,1.827c-.01.912-.014,1.824-.021,2.736l-7,0V7.61c.144-.087.1-.239.127-.367A8.778,8.778,0,0,1,8.425.019c2.45-.04,4.9,0,7.352,0a24.829,24.829,0,0,0,.128,3.032A7.025,7.025,0,0,0,29.411,4.172,12.539,12.539,0,0,0,29.854.017c2.451,0,4.9-.037,7.353,0a8.78,8.78,0,0,1,8.171,6.66,2.631,2.631,0,0,1,.033.347q-1.6,0-3.209.006c-2.73.008-5.461.015-8.19-.03a2.448,2.448,0,0,0-2.555,1.571c-1.3,2.721-2.692,5.395-4.048,8.088l-.008-.018.008.018c-.8,1.615-1.6,3.227-2.385,4.845-.76,1.559-.6,2.146.829,3.068Zm16.852-7.94h0Zm-.794-.365h0Z" transform="translate(0 31.588)" fill="url(#linear-gradient)"/>
        <path id="Path_614" data-name="Path 614" d="M89.7,10.512c0-2.72.036-5.441-.018-8.16A2.215,2.215,0,0,1,90.983,0h15.561c.782.262,1.6.381,2.372.7a8.851,8.851,0,0,1,5.342,7.831c.009.66,0,1.321,0,1.981q-4.235.007-8.471.013c-1.328,0-1.806-.395-2.048-1.7-.147-.8-.4-1.489-1.293-1.743a2.026,2.026,0,0,0-1.94.627A13.754,13.754,0,0,1,93,10.5c-1.088.1-2.195.013-3.293.011" transform="translate(-79.165)" fill="url(#linear-gradient)"/>
        <path id="Path_615" data-name="Path 615" d="M212.337,338.625c1.356-2.693,2.751-5.367,4.048-8.088a2.448,2.448,0,0,1,2.555-1.571c3.8.064,7.6.024,11.4.025,4.189,0,8.378.031,12.567-.017a1.8,1.8,0,0,1,1.736,2.545c-.367.616-.619,1.3-.94,1.942-1.955,3.918-3.925,7.829-5.864,11.754a2.155,2.155,0,0,1-2.157,1.341c-8.3-.026-16.6-.017-24.9-.019-1.426-.922-1.59-1.509-.83-3.068.789-1.618,1.589-3.23,2.385-4.845" transform="translate(-184.929 -290.376)" fill="url(#linear-gradient-3)"/>
        <path id="Union_22" data-name="Union 22" d="M11.734,33.346a7.146,7.146,0,0,1-6.354-5.72,24.864,24.864,0,0,1-.128-3.032H11a16.06,16.06,0,0,1-2.8-.718,12.261,12.261,0,0,1-6.759-5.791.866.866,0,0,1-.152-.493c.214-.008.428-.023.642-.023q5.118,0,10.236,0a1.746,1.746,0,0,0,1.557-.757,1.657,1.657,0,0,0,.088-1.872,1.7,1.7,0,0,0-1.593-.894H1.161c-1.121,0-1.122,0-1.147-1.154,0-.1,0-.2,0-.293Q0,9.822,0,7.043.007,5.272.013,3.5c1.1,0,2.2.094,3.293-.011A13.752,13.752,0,0,0,10.814.7a2.026,2.026,0,0,1,1.94-.627c.889.254,1.146.948,1.293,1.743.242,1.308.72,1.7,2.048,1.7q4.236,0,8.471-.013.007,1.771.013,3.543c0,1.247-.04,2.5,0,3.741a14.65,14.65,0,0,1-1.174,6.768,12.337,12.337,0,0,1-4.979,5.382c-.653.367-1.364.63-2.048.941a27.76,27.76,0,0,1-2.8.718h5.747a12.53,12.53,0,0,1-.443,4.156,7.178,7.178,0,0,1-6.575,4.623Q12.022,33.372,11.734,33.346Zm4.647-9.47c0-.015,0-.03,0-.044C16.382,23.845,16.382,23.86,16.38,23.875ZM8.2,23.819c0-.279.139-.409.442-.409h0C8.335,23.41,8.191,23.54,8.2,23.819Zm.444-.409q3.65,0,7.3,0-3.65,0-7.3,0Zm7.305,0h0Z" transform="translate(10.526 7.011)" fill="url(#linear-gradient-3)"/>
        <path id="Path_618" data-name="Path 618" d="M289.274,130.218a14.651,14.651,0,0,0,1.174-6.768c-.042-1.245,0-2.494,0-3.74a16.038,16.038,0,0,1,2.791.094,5.262,5.262,0,0,1,.052,10.307,24.042,24.042,0,0,1-4.015.107" transform="translate(-255.341 -105.654)" fill="url(#linear-gradient)"/>
        <path id="Path_619" data-name="Path 619" d="M63.242,364.847q0,4.149-.005,8.3H59.7q0-4.734-.006-9.468c.007-.912.01-1.824.021-2.736a1.7,1.7,0,0,1,1.741-1.827,1.746,1.746,0,0,1,1.762,1.832c.011,1.3.014,2.6.02,3.9" transform="translate(-52.695 -316.988)" fill="url(#linear-gradient-3)"/>
        <path id="Path_620" data-name="Path 620" d="M36.776,119.7q0,2.779.009,5.557c0,.1,0,.195,0,.292.025,1.154.025,1.154,1.147,1.154H48.992a1.7,1.7,0,0,1,1.593.894,1.657,1.657,0,0,1-.088,1.872,1.747,1.747,0,0,1-1.557.756q-5.118,0-10.236,0c-.214,0-.428.015-.642.023-1.089-.011-2.178,0-3.267-.036a5.265,5.265,0,0,1-1.488-10.241,10.658,10.658,0,0,1,3.468-.272" transform="translate(-26.25 -105.649)" fill="url(#linear-gradient)"/>
      </g>
    </g>
  </g>
</svg>
