<svg xmlns="http://www.w3.org/2000/svg" xmlns:xlink="http://www.w3.org/1999/xlink" width="60" height="60" viewBox="0 0 60 60">
  <defs>
    <clipPath id="clip-path">
      <rect id="Rectangle_123" data-name="Rectangle 123" width="48.587" height="55.404" fill="none"/>
    </clipPath>
    <linearGradient id="linear-gradient" x1="0.5" x2="0.5" y2="1" gradientUnits="objectBoundingBox">
      <stop offset="0" stop-color="#ed6bfd"/>
      <stop offset="1" stop-color="#ab29fc"/>
    </linearGradient>
    <linearGradient id="linear-gradient-2" x1="0.942" x2="0.5" y2="1" gradientUnits="objectBoundingBox">
      <stop offset="0" stop-color="#fff0ff"/>
      <stop offset="1" stop-color="#febdfa"/>
    </linearGradient>
  </defs>
  <g id="icon-bad-food" transform="translate(3397.819 2551.819)">
    <g id="bg" transform="translate(-3397.819 -2551.819)" fill="#fff" stroke="#707070" stroke-width="1" opacity="0">
      <rect width="60" height="60" stroke="none"/>
      <rect x="0.5" y="0.5" width="59" height="59" fill="none"/>
    </g>
    <g id="icon" transform="translate(-3392.074 -2549.482)">
      <g id="Group_102" data-name="Group 102" clip-path="url(#clip-path)">
        <path id="Path_504" data-name="Path 504" d="M38.437,380.08H9.933c-.056-.126-.177-.1-.278-.116a10.57,10.57,0,0,1-2.538-.705A11.179,11.179,0,0,1,.032,369.5a4.885,4.885,0,0,1,3.42-5.414.337.337,0,0,1,.23.2,4.948,4.948,0,0,0,4.806,2.838c7.159-.017,14.318-.006,21.476-.006a3.2,3.2,0,0,0,.377,0c.325-.039.446.085.434.421-.023.611-.009,1.223,0,1.835a8.1,8.1,0,0,0,.048,1.668,3.307,3.307,0,0,0,3.532,2.54,3.258,3.258,0,0,0,2.9-3.335c0-.882.019-1.764,0-2.645-.01-.372.094-.5.48-.49.935.026,1.871.033,2.805,0a4.77,4.77,0,0,0,4.25-2.588c.093-.165.114-.392.355-.439a4.987,4.987,0,0,1,2.871,2.352,10.223,10.223,0,0,1,.581,1.651v2.052c-.376.438-.229,1.008-.377,1.506a11.3,11.3,0,0,1-7.649,7.938c-.694.233-1.427.279-2.123.492" transform="translate(0 -324.676)" fill="url(#linear-gradient)"/>
        <path id="Path_505" data-name="Path 505" d="M129.964,0h.216a2.234,2.234,0,0,0,1.512,0h.216c.17.412.53.167.8.219a11.407,11.407,0,0,1,7.241,4.35,11.189,11.189,0,0,1,2.332,6.9,11.342,11.342,0,0,1-22.685,0,8.9,8.9,0,0,1,.224-2.236,11.2,11.2,0,0,1,4.533-7A10.465,10.465,0,0,1,129.706.216c.145-.011.238-.064.258-.216m4.849,8.813a1.466,1.466,0,0,0-.951-1.125A1.583,1.583,0,0,0,132.106,8a10.6,10.6,0,0,0-.881.874c-.2.22-.357.245-.569.01a11.675,11.675,0,0,0-.839-.839,1.623,1.623,0,1,0-2.241,2.345c.28.28.554.566.841.839a.264.264,0,0,1,0,.45c-.312.3-.626.6-.914.918a1.621,1.621,0,0,0,2.293,2.293,9.991,9.991,0,0,0,.839-.84c.222-.251.379-.237.608,0a6.158,6.158,0,0,0,1.1,1.034,1.6,1.6,0,0,0,2.488-1.425,2.087,2.087,0,0,0-.8-1.415c-.8-.787-.8-.8.006-1.588a2.186,2.186,0,0,0,.778-1.838" transform="translate(-106.642)" stroke="rgba(0,0,0,0)" stroke-width="1" fill="url(#linear-gradient-2)"/>
        <path id="Path_506" data-name="Path 506" d="M218.946,0a2.235,2.235,0,0,1-1.512,0Z" transform="translate(-193.896)" fill="#fefefe"/>
        <path id="Path_507" data-name="Path 507" d="M67.961,302.318a5.262,5.262,0,0,1,2.7,1.344,4.764,4.764,0,0,1,1.354,4.634,2.368,2.368,0,0,0-.064.693c-.241.047-.262.274-.355.439a4.771,4.771,0,0,1-4.25,2.588c-.934.031-1.871.023-2.805,0-.386-.011-.49.118-.48.49.024.881.009,1.763,0,2.645a3.258,3.258,0,0,1-2.9,3.335,3.307,3.307,0,0,1-3.532-2.54,8.1,8.1,0,0,1-.048-1.668c-.006-.612-.019-1.224,0-1.835.013-.337-.109-.46-.434-.421a3.2,3.2,0,0,1-.377,0c-7.159,0-14.318-.01-21.476.006A4.949,4.949,0,0,1,30.5,309.19a.337.337,0,0,0-.23-.2,2.71,2.71,0,0,0-.121-1.01,4.816,4.816,0,0,1,3.864-5.575,1.567,1.567,0,0,0,.246-.086c.161-.006.323-.018.484-.018h32.3c.305,0,.61.011.915.018" transform="translate(-26.816 -269.574)" stroke="rgba(0,0,0,0)" stroke-width="1" fill="url(#linear-gradient-2)"/>
        <path id="Union_11" data-name="Union 11" d="M4.146,21.191A4.786,4.786,0,0,1,.111,15.31c.113-.58.3-1.147.446-1.72H47.363a7,7,0,0,1,.362,4.274,4.93,4.93,0,0,1-4.538,3.391c-.791.017-1.583.015-2.374.021-.305-.006-.61-.017-.915-.017H7.592c-.161,0-.323.012-.484.018-.4-.028-.8-.018-1.2-.009-.2,0-.4.009-.6.009A6.568,6.568,0,0,1,4.146,21.191ZM.557,13.59A21.389,21.389,0,0,1,8.989,1.971,16.665,16.665,0,0,1,12.618,0,11.321,11.321,0,0,0,23.933,11.315,11.321,11.321,0,0,0,35.3,0a19.172,19.172,0,0,1,5.545,3.455,20.633,20.633,0,0,1,4.525,5.508,19.631,19.631,0,0,1,1.99,4.627Z" transform="translate(0.334 11.467)" fill="url(#linear-gradient)"/>
        <path id="Path_509" data-name="Path 509" d="M196.163,70.971a2.186,2.186,0,0,1-.778,1.838c-.8.793-.8.8-.006,1.588a2.087,2.087,0,0,1,.8,1.415,1.6,1.6,0,0,1-2.488,1.425,6.158,6.158,0,0,1-1.1-1.034c-.229-.237-.386-.251-.608,0a9.98,9.98,0,0,1-.839.84,1.621,1.621,0,0,1-2.293-2.293c.288-.321.6-.619.914-.918a.264.264,0,0,0,0-.45c-.286-.273-.56-.559-.841-.839a1.623,1.623,0,1,1,2.241-2.345,11.67,11.67,0,0,1,.839.839c.211.235.367.21.569-.01a10.6,10.6,0,0,1,.881-.874,1.583,1.583,0,0,1,1.756-.307,1.466,1.466,0,0,1,.951,1.125" transform="translate(-167.992 -62.158)" fill="url(#linear-gradient)"/>
      </g>
    </g>
  </g>
</svg>
