<svg xmlns="http://www.w3.org/2000/svg" xmlns:xlink="http://www.w3.org/1999/xlink" width="60" height="60" viewBox="0 0 60 60">
  <defs>
    <clipPath id="clip-path">
      <rect id="Rectangle_126" data-name="Rectangle 126" width="48.528" height="55.207" fill="none"/>
    </clipPath>
    <linearGradient id="linear-gradient" x1="0.5" x2="0.5" y2="1" gradientUnits="objectBoundingBox">
      <stop offset="0" stop-color="#ed6bfd"/>
      <stop offset="1" stop-color="#ab29fc"/>
    </linearGradient>
    <linearGradient id="linear-gradient-2" x1="0.942" x2="0.5" y2="1" gradientUnits="objectBoundingBox">
      <stop offset="0" stop-color="#fff0ff"/>
      <stop offset="1" stop-color="#febdfa"/>
    </linearGradient>
  </defs>
  <g id="icon-brain-food" transform="translate(3397.836 2551.836)">
    <g id="bg" transform="translate(-3397.836 -2551.836)" fill="#fff" stroke="#707070" stroke-width="1" opacity="0">
      <rect width="60" height="60" stroke="none"/>
      <rect x="0.5" y="0.5" width="59" height="59" fill="none"/>
    </g>
    <g id="icon" transform="translate(-3392.1 -2549.439)">
      <g id="Group_108" data-name="Group 108" clip-path="url(#clip-path)">
        <path id="Union_14" data-name="Union 14" d="M29.651,55.207c-.039-.032-.075-.086-.118-.093a8.19,8.19,0,0,1-5.055-3.029c-.226-.276-.307-.148-.465.043a8.434,8.434,0,0,1-4.236,2.816,3.848,3.848,0,0,0-1.017.263H16.6c-.048-.133-.173-.1-.271-.127a8.156,8.156,0,0,1-6.41-6.263c-.083-.317-.274-.362-.531-.426a8.077,8.077,0,0,1-5.3-11.446.535.535,0,0,0-.149-.793,10.787,10.787,0,0,1-3.431-5.3l.008-.006-.008.006A16.935,16.935,0,0,1,0,29v-2.8a.633.633,0,0,0,.1-.179,11.288,11.288,0,0,1,3.948-7.086.386.386,0,0,0,.1-.554,8.8,8.8,0,0,1-.531-1.231A8.1,8.1,0,0,1,9.277,6.856.882.882,0,0,0,10,6.139,7.92,7.92,0,0,1,16.19.2a7.611,7.611,0,0,1,7.7,2.763c.31.352.429.348.739,0A7.622,7.622,0,0,1,32.435.22,7.975,7.975,0,0,1,38.56,6.24c.079.275.14.483.476.558a8.069,8.069,0,0,1,5.339,11.574.39.39,0,0,0,.129.578,9.675,9.675,0,0,1,1.833,1.964A11.011,11.011,0,0,1,48.261,29.9l-.012-.008.012.008a11.211,11.211,0,0,1-3.743,6.31.449.449,0,0,0-.13.662,8.088,8.088,0,0,1-5.265,11.515.637.637,0,0,0-.548.538,8.2,8.2,0,0,1-4.8,5.663c-.636.285-1.328.372-1.972.62ZM12.938,32.292a1.676,1.676,0,0,0,.991,1.649q4.764,2.379,9.53,4.756a1.644,1.644,0,0,0,1.55.022q4.814-2.4,9.626-4.8a1.632,1.632,0,0,0,.944-1.569c0-.862.007-1.724.011-2.586l12,0-12,0c-.012-.214-.034-.429-.034-.643,0-2.588,0-5.176.014-7.764a1.762,1.762,0,0,0-1.031-1.739q-4.71-2.356-9.416-4.722a1.8,1.8,0,0,0-1.751.015c-.934.492-1.863,1-2.82,1.441-2.193,1.015-4.308,2.184-6.488,3.222a1.811,1.811,0,0,0-1.118,1.835c.026,2.893.017,5.787.019,8.68,0,.214-.022.429-.034.643C12.934,31.25,12.947,31.771,12.938,32.292ZM.556,30.823a.764.764,0,0,1,.447-.1A.764.764,0,0,0,.556,30.823Zm.523-.1h0Zm-.065,0h0Zm47.233-.835,0,0Zm-.015-.01h0Zm0,0-.013-.009Zm-.6-.121h0Zm.043,0h0Z" transform="translate(0 0)" fill="url(#linear-gradient)"/>
        <path id="Path_536" data-name="Path 536" d="M142.259,153.395a1.632,1.632,0,0,1-.944,1.569q-4.81,2.409-9.626,4.8a1.644,1.644,0,0,1-1.55-.022q-4.764-2.381-9.53-4.756a1.675,1.675,0,0,1-.991-1.649c.009-.521,0-1.041-.007-1.562.012-.214.034-.429.034-.643,0-2.894.007-5.787-.018-8.68a1.811,1.811,0,0,1,1.118-1.835c2.18-1.038,4.3-2.208,6.488-3.222.957-.443,1.886-.949,2.82-1.441a1.8,1.8,0,0,1,1.751-.015q4.7,2.367,9.416,4.722a1.762,1.762,0,0,1,1.031,1.739c-.016,2.588-.013,5.176-.014,7.764,0,.214.022.429.034.643" transform="translate(-106.679 -121.048)" stroke="rgba(0,0,0,0)" stroke-width="1" fill="url(#linear-gradient-2)"/>
        <path id="Path_537" data-name="Path 537" d="M29.641,7.888A5.45,5.45,0,0,1,30.663,3.98,4.836,4.836,0,0,1,33.33,2.2c.255-.064.342-.173.316-.43a5.925,5.925,0,0,1,0-.768,1,1,0,0,1,2,0c.011.356-.112.791.051,1.044.147.228.615.233.921.378a4.954,4.954,0,0,1,3.038,4.6c.011.289-.005.578-.009.868H29.641" transform="translate(-10.387 20.997)" stroke="rgba(0,0,0,0)" stroke-width="1" fill="url(#linear-gradient)"/>
        <path id="Path_538" data-name="Path 538" d="M12.986,118.955a.976.976,0,0,1,.934.568.889.889,0,0,1-.128,1.045.5.5,0,0,0-.056.117,1.537,1.537,0,0,1-.971.277q-5.763-.012-11.526,0A1.4,1.4,0,0,1,.2,120.6a1.019,1.019,0,0,1,.956-1.643c.211,0,.422,0,.633,0" transform="translate(17.248 -88.386)" opacity="0.586" fill="url(#linear-gradient)"/>
      </g>
    </g>
  </g>
</svg>
