<svg xmlns="http://www.w3.org/2000/svg" xmlns:xlink="http://www.w3.org/1999/xlink" width="60" height="60" viewBox="0 0 60 60">
  <defs>
    <linearGradient id="linear-gradient" x1="0.5" x2="0.5" y2="1" gradientUnits="objectBoundingBox">
      <stop offset="0" stop-color="#ed6bfd"/>
      <stop offset="1" stop-color="#ab29fc"/>
    </linearGradient>
    <clipPath id="clip-path">
      <rect id="Rectangle_127" data-name="Rectangle 127" width="55.215" height="51.77" fill="none"/>
    </clipPath>
    <linearGradient id="linear-gradient-2" x1="0.942" x2="0.5" y2="1" gradientUnits="objectBoundingBox">
      <stop offset="0" stop-color="#fff0ff"/>
      <stop offset="1" stop-color="#febdfa"/>
    </linearGradient>
    <clipPath id="clip-path-2">
      <rect id="Rectangle_128" data-name="Rectangle 128" width="9.533" height="15.153" stroke="rgba(0,0,0,0)" stroke-width="1" fill="url(#linear-gradient)"/>
    </clipPath>
  </defs>
  <g id="icon-diet-tips" transform="translate(3397.836 2551.836)">
    <g id="bg" transform="translate(-3397.836 -2551.836)" fill="#fff" stroke="#707070" stroke-width="1" opacity="0">
      <rect width="60" height="60" stroke="none"/>
      <rect x="0.5" y="0.5" width="59" height="59" fill="none"/>
    </g>
    <g id="icon" transform="translate(-3395.443 -2547.72)">
      <g id="Group_109" data-name="Group 109" clip-path="url(#clip-path)">
        <path id="Path_539" data-name="Path 539" d="M296.231,253.548c-.145.729-.264,1.464-.438,2.186a12.834,12.834,0,0,1-2.535,4.854,12.316,12.316,0,0,1-4.751,3.668,12.6,12.6,0,0,1-6.695,1.071,12.873,12.873,0,0,1-6.37-2.5,12.449,12.449,0,0,1-3.254-3.532c-.1-.166-.229-.316-.344-.474a2.1,2.1,0,0,0-.118-.349,13.527,13.527,0,0,1-1.5-5.25c.034-.769.018-1.538.1-2.309a12.616,12.616,0,0,1,1.346-4.375,14.12,14.12,0,0,1,2.662-3.561,15.514,15.514,0,0,0,1.539-1.309c.251.062.4-.137.575-.243a12.932,12.932,0,0,1,5.346-1.8,13.108,13.108,0,0,1,14.229,10.514,4.059,4.059,0,0,0,.2,1.25Z" transform="translate(-241.016 -213.648)" stroke="rgba(0,0,0,0)" stroke-width="1" fill="url(#linear-gradient-2)"/>
        <path id="Path_540" data-name="Path 540" d="M70.5,19.855c0-1.706-.038-3.412.008-5.117a8.159,8.159,0,0,0-6.968-8.184,10.437,10.437,0,0,0-1.065-.084A1.693,1.693,0,0,1,60.8,4.855,1.694,1.694,0,0,1,62.48,3.241a11.282,11.282,0,0,1,7.353,2.806,12.313,12.313,0,0,1,1.776,1.99c.22.3.346.281.516-.051A14.312,14.312,0,0,1,74.97,4.11,14.624,14.624,0,0,1,82.547.225c.155-.029.34.012.359-.225h.216c.108.14.216.14.324,0h2.049c.254.248.633.329.832.656a1.739,1.739,0,0,1,.357.935A14.4,14.4,0,0,1,83.2,10.984a14.818,14.818,0,0,1-8.214,4.831.415.415,0,0,1-.051.017c-.387.039-.9-.017-1.112.239-.257.309-.076.826-.083,1.253-.014.843,0,1.687,0,2.53a3.518,3.518,0,0,1-3.238,0" transform="translate(-54.223)" stroke="rgba(0,0,0,0)" stroke-width="1" fill="url(#linear-gradient-2)"/>
        <path id="Path_541" data-name="Path 541" d="M267.627,0c-.108.14-.216.14-.324,0Z" transform="translate(-238.405)" fill="#fefefe"/>
        <path id="Union_15" data-name="Union 15" d="M9.783,30.693A20.7,20.7,0,0,1,4.089,24.6a23.157,23.157,0,0,1-2.28-4.318,1.009,1.009,0,0,1,.551-.115,1.009,1.009,0,0,0-.551.115C.31,16.932-.553,13.492.4,9.809h0A12.757,12.757,0,0,1,6.474,1.794,12.688,12.688,0,0,1,13.469.014,20.869,20.869,0,0,1,16.277.45a3.519,3.519,0,0,0,3.238,0A16.032,16.032,0,0,1,23.344.011,12.917,12.917,0,0,1,34.758,8.259c.045.116.069.24.1.36a15.522,15.522,0,0,1-1.539,1.309.718.718,0,0,0-.639-.221.718.718,0,0,1,.639.221,14.125,14.125,0,0,0-2.662,3.561,12.615,12.615,0,0,0-1.346,4.375c-.081.771-.066,1.54-.1,2.309a13.526,13.526,0,0,0,1.5,5.25,2.087,2.087,0,0,1,.118.349,21.579,21.579,0,0,1-3.293,3.688,10.9,10.9,0,0,1-5.515,2.84,7.969,7.969,0,0,1-3.757-.449.8.8,0,0,0-.616-.047,8.026,8.026,0,0,1-2.9.56A8.847,8.847,0,0,1,9.783,30.693ZM.563,9.78A12.737,12.737,0,0,1,2.6,9.712q14.937,0,29.874,0h0q-14.937,0-29.874,0c-.147,0-.294,0-.441,0s-.292,0-.438,0A7.24,7.24,0,0,0,.563,9.78Z" transform="translate(0 19.405)" fill="url(#linear-gradient)"/>
        <g id="Group_112" data-name="Group 112" transform="translate(37.448 31.25)">
          <g id="Group_111" data-name="Group 111" clip-path="url(#clip-path-2)">
            <path id="Path_545" data-name="Path 545" d="M79.62,336.263a11.638,11.638,0,0,1-.026,1.327,2.37,2.37,0,0,1-2.027,2.017c-.014,0-.026.016-.039.025h-.572c-.06-.056-.141-.032-.211-.05a2.366,2.366,0,0,1-1.841-1.868,2.715,2.715,0,0,1-.044-.675c0-.258,0-.517,0-.775H79.62" transform="translate(-72.476 -324.478)" opacity="0.586" fill="url(#linear-gradient)"/>
            <path id="Path_546" data-name="Path 546" d="M7.145,10H2.389c0-.063-.008-.127,0-.19a1.563,1.563,0,0,0-.646-1.391A4.628,4.628,0,0,1,.491,6.865a4.764,4.764,0,1,1,8.97-2.913,4.555,4.555,0,0,1,0,1.61A4.616,4.616,0,0,1,8.5,7.7a4.964,4.964,0,0,1-.723.742,1.53,1.53,0,0,0-.623,1.369c0,.063,0,.127,0,.19" transform="translate(-0.001 -0.001)" stroke="rgba(0,0,0,0)" stroke-width="1" fill="url(#linear-gradient)"/>
          </g>
        </g>
      </g>
    </g>
  </g>
</svg>
