<svg xmlns="http://www.w3.org/2000/svg" xmlns:xlink="http://www.w3.org/1999/xlink" width="60" height="60" viewBox="0 0 60 60">
  <defs>
    <linearGradient id="linear-gradient" x1="0.5" x2="0.5" y2="1" gradientUnits="objectBoundingBox">
      <stop offset="0" stop-color="#ed6bfd"/>
      <stop offset="1" stop-color="#ab29fc"/>
    </linearGradient>
    <linearGradient id="linear-gradient-2" x1="0.942" x2="0.5" y2="1" gradientUnits="objectBoundingBox">
      <stop offset="0" stop-color="#fff0ff"/>
      <stop offset="1" stop-color="#febdfa"/>
    </linearGradient>
  </defs>
  <g id="icon-grocery_iist" data-name="icon-grocery iist" transform="translate(3397.836 2551.836)">
    <g id="bg" transform="translate(-3397.836 -2551.836)" fill="#fff" stroke="#707070" stroke-width="1" opacity="0">
      <rect width="60" height="60" stroke="none"/>
      <rect x="0.5" y="0.5" width="59" height="59" fill="none"/>
    </g>
    <g id="Group_104" data-name="Group 104" transform="translate(-3391.916 -2549.364)">
      <g id="Group_107" data-name="Group 107">
        <path id="Union_12" data-name="Union 12" d="M1.069,40.511A3.786,3.786,0,0,1,0,39.437V25.682H0V10.208c.4.024.809.032,1.214.032-.405,0-.81-.009-1.214-.032V0H34.519c.249,0,.5.009.748.013q-.006,4.507-.013,9.015h0q.011,6.614.021,13.228c0,1.071-.012,2.141-.019,3.212l-10.141,0,10.141,0c.007,4.314-.006,8.629.035,12.943a1.99,1.99,0,0,1-1.194,2.1ZM7.294,26.156A1.618,1.618,0,0,0,6.9,28.778c.462.5.952.968,1.434,1.445a1.639,1.639,0,0,0,2.575,0c.95-.944,1.885-1.9,2.84-2.842a1.972,1.972,0,0,0,.661-1.778.547.547,0,0,1,.436-.136.547.547,0,0,0-.436.136c-.72-1.431-1.844-1.61-2.977-.479-.416.415-.842.821-1.263,1.231a1.291,1.291,0,0,0,0-.54,1.292,1.292,0,0,1,0,.54c-.5.561-.5.56-1.052.085-.119-.1-.252-.187-.379-.28,0-.294-.162-.206-.316-.13H7.611a.555.555,0,0,0-.2-.074C7.341,25.952,7.3,26,7.294,26.156Zm10.525,1.458a1.621,1.621,0,1,0-.01,3.226c1.548,0,3.1,0,4.645,0q2.3,0,4.592,0a1.624,1.624,0,1,0,.01-3.226l-4.734,0ZM6.548,17.2a1.527,1.527,0,0,0,.293,1.738c.5.531,1.022,1.046,1.546,1.557a1.613,1.613,0,0,0,2.458.006q1.526-1.5,3.022-3.033a1.623,1.623,0,1,0-2.288-2.286c-.56.55-1.117,1.1-1.657,1.673-.225.238-.386.247-.6,0a1.745,1.745,0,0,0-1.375-.636A1.53,1.53,0,0,0,6.548,17.2Zm20.6,3.857a1.613,1.613,0,1,0,0-3.221q-4.7-.008-9.406,0a1.614,1.614,0,1,0,0,3.222c1.55.006,3.1,0,4.65,0C23.981,21.061,25.567,21.067,27.152,21.059ZM8.049,10.515c.067.057.138.11.2.172A1.681,1.681,0,0,0,11,10.682c.527-.523,1.059-1.041,1.589-1.561h0q.63-.654,1.259-1.308a1.646,1.646,0,0,0,.118-2.392,1.618,1.618,0,0,0-2.377.1c-.534.525-1.072,1.047-1.579,1.6-.279.3-.459.318-.763.012a1.59,1.59,0,0,0-2.369-.089,1.646,1.646,0,0,0,.142,2.391c.346.358.69.719,1.035,1.079Zm9.892.871q4.5,0,9.01,0a1.656,1.656,0,0,0,1.8-2.252h0a1.97,1.97,0,0,0-1.928-.973q-4.378.044-8.757,0a1.975,1.975,0,0,0-1.929.973h0A1.653,1.653,0,0,0,17.941,11.387Zm-10.016-.9-.008,0Zm-2.919-.312-.179,0Zm-.58,0h0Zm.37,0h0ZM28.929,9.092a2.827,2.827,0,0,1,.612-.067h-.009A2.822,2.822,0,0,0,28.929,9.092Z" transform="translate(0.052 14.494)" fill="url(#linear-gradient)"/>
        <path id="Path_513" data-name="Path 513" d="M16.523,29.766h3.189q.008,2.31.015,4.619a1.61,1.61,0,1,0,3.193,0q.008-2.31.016-4.619h3.189q.008,2.31.015,4.619a1.61,1.61,0,1,0,3.193,0q.008-2.31.016-4.619,2.319,0,4.639,0a1.605,1.605,0,0,1,1.764,1.754q0,4.771-.005,9.542c-.249,0-.5-.013-.748-.013H.481V30.628A.5.5,0,0,0,.817,30.4a1.667,1.667,0,0,1,1.343-.628q2.363,0,4.726,0,.008,2.31.016,4.619a1.61,1.61,0,1,0,3.193,0q.008-2.31.016-4.619H13.3q.008,2.31.016,4.619a1.61,1.61,0,1,0,3.193,0q.008-2.31.016-4.619" transform="translate(-0.429 -26.557)" stroke="rgba(0,0,0,0)" stroke-width="1" fill="url(#linear-gradient-2)"/>
        <path id="Path_515" data-name="Path 515" d="M368.992,423.28a12.14,12.14,0,0,1-2.523,7.565,5.278,5.278,0,0,1-1.839,1.812h-.855a7.915,7.915,0,0,1-2.506-2.78,12.023,12.023,0,0,1-1.856-6.6h9.58" transform="translate(-320.861 -377.652)" stroke="rgba(0,0,0,0)" stroke-width="1" fill="url(#linear-gradient-2)"/>
        <path id="Path_517" data-name="Path 517" d="M156.327,303.12c-1.55,0-3.1,0-4.65,0a1.614,1.614,0,1,1,0-3.222q4.7-.008,9.406,0a1.613,1.613,0,1,1,0,3.221c-1.585.008-3.171,0-4.756,0" transform="translate(-133.88 -267.566)" stroke="rgba(0,0,0,0)" stroke-width="1" fill="url(#linear-gradient-2)"/>
        <path id="Path_518" data-name="Path 518" d="M150.327,211.14a1.976,1.976,0,0,1,1.929-.973q4.378.044,8.757,0a1.971,1.971,0,0,1,1.928.973,1.656,1.656,0,0,1-1.8,2.252q-4.5,0-9.01,0a1.653,1.653,0,0,1-1.8-2.252" transform="translate(-134.136 -187.512)" stroke="rgba(0,0,0,0)" stroke-width="1" fill="url(#linear-gradient-2)"/>
        <path id="Path_519" data-name="Path 519" d="M68.139,361.865a1.972,1.972,0,0,1-.661,1.779c-.956.938-1.89,1.9-2.84,2.842a1.639,1.639,0,0,1-2.574,0c-.482-.477-.972-.948-1.434-1.445a1.619,1.619,0,0,1,.393-2.623l.317-.13h.813l.316.131c.127.093.26.178.379.28.555.475.554.477,1.052-.085.421-.41.847-.816,1.263-1.231,1.133-1.131,2.257-.952,2.977.479" transform="translate(-53.677 -321.773)" stroke="rgba(0,0,0,0)" stroke-width="1" fill="url(#linear-gradient-2)"/>
        <path id="Path_520" data-name="Path 520" d="M61.705,271.6a1.745,1.745,0,0,1,1.375.636c.217.248.378.239.6,0,.539-.57,1.1-1.123,1.657-1.673a1.623,1.623,0,1,1,2.288,2.286q-1.5,1.529-3.022,3.033a1.613,1.613,0,0,1-2.458-.006c-.524-.51-1.043-1.026-1.546-1.557a1.625,1.625,0,0,1,1.1-2.718" transform="translate(-53.71 -240.884)" stroke="rgba(0,0,0,0)" stroke-width="1" fill="url(#linear-gradient-2)"/>
        <path id="Path_521" data-name="Path 521" d="M61.985,185.928c-.345-.36-.689-.721-1.035-1.079a1.646,1.646,0,0,1-.142-2.391,1.59,1.59,0,0,1,2.369.089c.3.306.484.292.763-.012.506-.551,1.045-1.073,1.579-1.6a1.618,1.618,0,0,1,2.377-.1,1.646,1.646,0,0,1-.118,2.392q-.629.655-1.26,1.308c-.53.52-1.062,1.038-1.588,1.561a1.681,1.681,0,0,1-2.745.005c-.063-.061-.134-.115-.2-.172" transform="translate(-53.884 -160.919)" stroke="rgba(0,0,0,0)" stroke-width="1" fill="url(#linear-gradient-2)"/>
        <path id="Path_522" data-name="Path 522" d="M156.38,393.83c-1.548,0-3.1,0-4.645,0a1.621,1.621,0,1,1,.01-3.226q4.618,0,9.237,0a1.624,1.624,0,1,1-.01,3.226q-2.3,0-4.592,0" transform="translate(-133.874 -348.496)" stroke="rgba(0,0,0,0)" stroke-width="1" fill="url(#linear-gradient-2)"/>
        <path id="Path_523" data-name="Path 523" d="M68.8,375.278l-.317.13c0-.294.163-.2.317-.13" transform="translate(-61.139 -334.759)" fill="#d050fe"/>
        <path id="Path_524" data-name="Path 524" d="M79.33,375.408l-.316-.131c.154-.075.313-.163.316.131" transform="translate(-70.539 -334.759)" fill="#d050fe"/>
        <path id="Union_13" data-name="Union 13" d="M.03,32.634q0-2.94,0-5.879H9.613q0,2.94,0,5.879Zm0-5.879C.021,25.1.009,23.436.01,21.777q0-4.818.018-9.637C.026,9.6-.04,7.054.038,4.515A4.761,4.761,0,0,1,4.847,0,4.756,4.756,0,0,1,9.6,4.515c.078,2.54.013,5.084.01,7.626q0,7.307,0,14.614Z" transform="translate(38.521 12.994)" fill="url(#linear-gradient)"/>
        <path id="Path_528" data-name="Path 528" d="M63.418,3.209q-.008,2.31-.016,4.619a1.61,1.61,0,1,1-3.193,0q-.008-2.31-.016-4.619c.007-.535.005-1.071.022-1.606a1.59,1.59,0,1,1,3.18,0c.017.535.015,1.07.022,1.606" transform="translate(-53.738 0)" fill="url(#linear-gradient)"/>
        <path id="Path_529" data-name="Path 529" d="M123.211,3.209q-.008,2.31-.016,4.619a1.61,1.61,0,1,1-3.193,0q-.008-2.31-.016-4.619c.007-.535.005-1.071.022-1.606a1.59,1.59,0,1,1,3.18,0c.017.535.015,1.07.022,1.606" transform="translate(-107.117 0)" fill="url(#linear-gradient)"/>
        <path id="Path_530" data-name="Path 530" d="M183,3.209q-.008,2.31-.016,4.619a1.61,1.61,0,1,1-3.193,0q-.008-2.31-.016-4.619c.007-.535.005-1.071.022-1.606a1.59,1.59,0,1,1,3.18,0c.017.535.015,1.07.022,1.606" transform="translate(-160.497 0)" fill="url(#linear-gradient)"/>
        <path id="Path_531" data-name="Path 531" d="M242.8,3.209q-.008,2.31-.016,4.619a1.61,1.61,0,1,1-3.193,0q-.008-2.31-.016-4.619c.007-.535.005-1.071.022-1.606a1.59,1.59,0,1,1,3.18,0c.017.535.015,1.07.022,1.606" transform="translate(-213.877 0)" fill="url(#linear-gradient)"/>
      </g>
    </g>
  </g>
</svg>
