<svg xmlns="http://www.w3.org/2000/svg" xmlns:xlink="http://www.w3.org/1999/xlink" width="60" height="60" viewBox="0 0 60 60">
  <defs>
    <clipPath id="clip-path">
      <rect id="Rectangle_122" data-name="Rectangle 122" width="44.872" height="54.736" fill="none"/>
    </clipPath>
    <linearGradient id="linear-gradient" x1="0.5" x2="0.5" y2="1" gradientUnits="objectBoundingBox">
      <stop offset="0" stop-color="#ed6bfd"/>
      <stop offset="1" stop-color="#ab29fc"/>
    </linearGradient>
    <linearGradient id="linear-gradient-2" x1="0.942" x2="0.5" y2="1" gradientUnits="objectBoundingBox">
      <stop offset="0" stop-color="#fff0ff"/>
      <stop offset="1" stop-color="#febdfa"/>
    </linearGradient>
  </defs>
  <g id="icon-diet-tips" transform="translate(3397.836 2551.836)">
    <g id="bg" transform="translate(-3397.836 -2551.836)" fill="#fff" stroke="#707070" stroke-width="1" opacity="0">
      <rect width="60" height="60" stroke="none"/>
      <rect x="0.5" y="0.5" width="59" height="59" fill="none"/>
    </g>
    <g id="icon-guide" transform="translate(0.363 0.363)">
      <g id="bg-2" data-name="bg" transform="translate(-3398.199 -2552.199)" fill="#fff" stroke="#707070" stroke-width="1" opacity="0">
        <rect width="60" height="60" stroke="none"/>
        <rect x="0.5" y="0.5" width="59" height="59" fill="none"/>
      </g>
      <g id="icon" transform="translate(-3390.686 -2549.618)">
        <g id="Group_100" data-name="Group 100" clip-path="url(#clip-path)">
          <path id="Path_500" data-name="Path 500" d="M44.811,1.288V43.142a1.859,1.859,0,0,0-2.045-1.309q-18.125.03-36.25.011A6.28,6.28,0,0,0,1.95,43.656,5.937,5.937,0,0,0,.091,47.272c-.138-.152-.077-.339-.077-.51Q0,27.412,0,8.062a7.015,7.015,0,0,1,.168-1.69A8,8,0,0,1,8.28.012Q25.51.011,42.74,0a1.9,1.9,0,0,1,2.071,1.288M6.4,22.619A16.006,16.006,0,1,0,22.423,6.634,15.993,15.993,0,0,0,6.4,22.619" transform="translate(-0.001 0)" fill="url(#linear-gradient)"/>
          <path id="Path_501" data-name="Path 501" d="M.136,395.978a5.936,5.936,0,0,1,1.858-3.616,6.279,6.279,0,0,1,4.566-1.811q18.125,0,36.25-.012a1.859,1.859,0,0,1,2.045,1.309v.747a1.891,1.891,0,0,1-1.633,1.169,3.192,3.192,0,0,0-3.173,3.047,3.14,3.14,0,0,0,2.86,3.329,2.116,2.116,0,0,1,1.946,1.21v.747a2.107,2.107,0,0,1-1.28,1.281H5.7a.833.833,0,0,0-.4-.116,6.4,6.4,0,0,1-5.158-7.286" transform="translate(-0.045 -348.705)" stroke="rgba(0,0,0,0)" stroke-width="1" fill="url(#linear-gradient-2)"/>
          <path id="Path_503" data-name="Path 503" d="M59.721,77.916A16.006,16.006,0,1,1,75.7,93.954,16,16,0,0,1,59.721,77.916" transform="translate(-53.324 -55.297)" stroke="rgba(0,0,0,0)" stroke-width="1" fill="url(#linear-gradient-2)"/>
          <g id="Group_101" data-name="Group 101" transform="translate(13.638 15.591)">
            <path id="Path_333" data-name="Path 333" d="M17.53,11.453v.269a1.272,1.272,0,0,1-.48.486,9.974,9.974,0,0,1-3.5,1.752c-.245.063-.5.1-.747.149h-.924a1.412,1.412,0,0,0-.376-.081A5,5,0,0,1,8.887,12.52c-.1-.107-.148-.1-.244,0a5.079,5.079,0,0,1-2.466,1.469c-.185.046-.374.077-.561.116H4.692c-.013-.009-.026-.025-.04-.027a7.633,7.633,0,0,1-2.781-.972A11.873,11.873,0,0,1,.232,12.016a.514.514,0,0,1,.013-.867A13.267,13.267,0,0,1,2.329,9.837c.056.024.083.075.118.118a5.605,5.605,0,0,0,1.57,1.352,6.744,6.744,0,0,0,2.936.868,7.235,7.235,0,0,0,1.68-.065c-.046-.032-.071-.054-.1-.07a7.174,7.174,0,0,1-2.071-1.832A5.811,5.811,0,0,1,5.239,5.7a8.18,8.18,0,0,1,.512-1.84A11.431,11.431,0,0,1,8.295.253c.35-.339.591-.336.947,0a12.026,12.026,0,0,1,1.4,1.619,10.549,10.549,0,0,1,1.14,1.982c.015.042.028.085.045.126a6.565,6.565,0,0,1,.49,3.27,6.1,6.1,0,0,1-1.623,3.406A6.909,6.909,0,0,1,8.87,12.112a7.555,7.555,0,0,0,3.079-.166,5.565,5.565,0,0,0,2.987-1.815,1,1,0,0,1,.267-.294,13.517,13.517,0,0,1,1.93,1.193,1.127,1.127,0,0,1,.4.424" transform="translate(0 0)" fill="url(#linear-gradient)"/>
            <path id="Path_334" data-name="Path 334" d="M261.4,85.575c.27-.1.539-.213.81-.314a11.107,11.107,0,0,1,2.468-.591,8.827,8.827,0,0,1,1.24-.1.534.534,0,0,1,.544.495,10.869,10.869,0,0,1-.326,3.707,7.414,7.414,0,0,1-1.267,2.695.536.536,0,0,0-.046.089,1,1,0,0,0-.267.294,5.565,5.565,0,0,1-2.987,1.815,7.556,7.556,0,0,1-3.079.166,6.907,6.907,0,0,0,1.822-1.453,6.1,6.1,0,0,0,1.623-3.406,6.565,6.565,0,0,0-.49-3.27c-.016-.041-.03-.084-.045-.126" transform="translate(-249.62 -81.719)" opacity="0.586" fill="url(#linear-gradient)"/>
            <path id="Path_335" data-name="Path 335" d="M20.662,91.6c-.127-.191-.259-.38-.381-.575a8.474,8.474,0,0,1-1.161-3.309,11.822,11.822,0,0,1-.131-2.089c0-.184.017-.369.039-.551a.521.521,0,0,1,.538-.461,12.167,12.167,0,0,1,2.963.445,15.226,15.226,0,0,1,1.556.558,8.178,8.178,0,0,0-.512,1.84,5.811,5.811,0,0,0,1.222,4.512,7.174,7.174,0,0,0,2.071,1.832c.028.017.054.038.1.07a7.235,7.235,0,0,1-1.68.065,6.744,6.744,0,0,1-2.936-.868,5.605,5.605,0,0,1-1.57-1.352c-.035-.043-.062-.095-.118-.118" transform="translate(-18.333 -81.768)" opacity="0.586" fill="url(#linear-gradient)"/>
          </g>
        </g>
      </g>
    </g>
  </g>
</svg>
