<svg xmlns="http://www.w3.org/2000/svg" xmlns:xlink="http://www.w3.org/1999/xlink" width="60" height="60" viewBox="0 0 60 60">
  <defs>
    <clipPath id="clip-path">
      <rect id="Rectangle_13" data-name="Rectangle 13" width="59.63" height="47.951" fill="none"/>
    </clipPath>
    <linearGradient id="linear-gradient" x1="0.5" x2="0.5" y2="1" gradientUnits="objectBoundingBox">
      <stop offset="0" stop-color="#ed6bfd"/>
      <stop offset="1" stop-color="#ab29fc"/>
    </linearGradient>
    <linearGradient id="linear-gradient-2" x1="0.942" x2="0.5" y2="1" gradientUnits="objectBoundingBox">
      <stop offset="0" stop-color="#fff0ff"/>
      <stop offset="1" stop-color="#febdfa"/>
    </linearGradient>
  </defs>
  <g id="meditation-icon" transform="translate(0.526 46.765)">
    <rect id="background" width="59.729" height="60" transform="translate(-0.526 -46.765)" fill="#fff" opacity="0"/>
    <g id="icon" transform="translate(-0.156 -40.763)" clip-path="url(#clip-path)">
      <path id="Path_304" data-name="Path 304" d="M59.63,38.926v.914A4.326,4.326,0,0,1,58,41.491a33.938,33.938,0,0,1-11.9,5.955c-.835.214-1.693.339-2.54.5H40.415a4.8,4.8,0,0,0-1.28-.275,17,17,0,0,1-8.906-5.124c-.35-.364-.5-.327-.831.012a17.278,17.278,0,0,1-8.387,4.993c-.629.156-1.271.263-1.907.393H15.96c-.045-.031-.088-.085-.136-.091a25.977,25.977,0,0,1-9.459-3.3A40.391,40.391,0,0,1,.788,40.84a1.746,1.746,0,0,1,.044-2.946,45.134,45.134,0,0,1,7.09-4.461c.19.08.282.255.4.4a19.062,19.062,0,0,0,5.339,4.595,22.955,22.955,0,0,0,9.986,2.95,24.63,24.63,0,0,0,5.715-.219c-.155-.11-.243-.182-.34-.239A24.4,24.4,0,0,1,21.977,34.7,19.737,19.737,0,0,1,17.82,19.36a27.785,27.785,0,0,1,1.743-6.254A38.85,38.85,0,0,1,28.214.859C29.4-.294,30.226-.282,31.436.867a40.881,40.881,0,0,1,4.758,5.5,35.846,35.846,0,0,1,3.878,6.737c.05.143.1.288.152.429A22.3,22.3,0,0,1,41.891,24.65,20.713,20.713,0,0,1,36.37,36.225a23.5,23.5,0,0,1-6.2,4.939A25.719,25.719,0,0,0,40.646,40.6a18.932,18.932,0,0,0,10.162-6.168,3.418,3.418,0,0,1,.908-1,45.985,45.985,0,0,1,6.565,4.056,3.83,3.83,0,0,1,1.349,1.439" transform="translate(0 0)" fill="url(#linear-gradient)"/>
      <path id="Path_305" data-name="Path 305" d="M268.391,87.987c.918-.357,1.832-.725,2.756-1.068a37.813,37.813,0,0,1,8.393-2.007,30.05,30.05,0,0,1,4.218-.342,1.816,1.816,0,0,1,1.849,1.682,36.912,36.912,0,0,1-1.107,12.6,25.187,25.187,0,0,1-4.31,9.159,1.835,1.835,0,0,0-.156.3,3.418,3.418,0,0,0-.908,1,18.932,18.932,0,0,1-10.162,6.168,25.722,25.722,0,0,1-10.475.565,23.5,23.5,0,0,0,6.2-4.939,20.714,20.714,0,0,0,5.521-11.575,22.3,22.3,0,0,0-1.668-11.115c-.056-.141-.1-.286-.152-.429" transform="translate(-228.319 -74.881)" fill="url(#linear-gradient-2)"/>
      <path id="Path_306" data-name="Path 306" d="M24.69,108.359c-.433-.65-.88-1.293-1.3-1.953a28.786,28.786,0,0,1-3.949-11.247A40.148,40.148,0,0,1,19,88.06c.016-.625.058-1.253.134-1.873a1.772,1.772,0,0,1,1.831-1.566A41.419,41.419,0,0,1,31.04,86.134a51.823,51.823,0,0,1,5.292,1.9,27.779,27.779,0,0,0-1.743,6.254,19.737,19.737,0,0,0,4.157,15.337,24.4,24.4,0,0,0,7.046,6.226c.1.056.184.129.34.239a24.629,24.629,0,0,1-5.715.219,22.955,22.955,0,0,1-9.986-2.95,19.062,19.062,0,0,1-5.339-4.595c-.12-.147-.211-.322-.4-.4" transform="translate(-16.769 -74.926)" fill="url(#linear-gradient-2)"/>
    </g>
  </g>
</svg>
