<svg xmlns="http://www.w3.org/2000/svg" xmlns:xlink="http://www.w3.org/1999/xlink" width="60" height="60" viewBox="0 0 60 60">
  <defs>
    <clipPath id="clip-path">
      <rect id="Rectangle_15" data-name="Rectangle 15" width="59.874" height="59.69" fill="none"/>
    </clipPath>
    <linearGradient id="linear-gradient" x1="0.942" x2="0.5" y2="1" gradientUnits="objectBoundingBox">
      <stop offset="0" stop-color="#fff0ff"/>
      <stop offset="1" stop-color="#febdfa"/>
    </linearGradient>
    <linearGradient id="linear-gradient-2" x1="0.5" x2="0.5" y2="1" gradientUnits="objectBoundingBox">
      <stop offset="0" stop-color="#ed6bfd"/>
      <stop offset="1" stop-color="#ab29fc"/>
    </linearGradient>
    <linearGradient id="linear-gradient-3" x2="-0.143" y2="1.939" xlink:href="#linear-gradient-2"/>
  </defs>
  <g id="nutrition-icon" transform="translate(1758.201 -77)">
    <rect id="background" width="59.828" height="59.682" transform="translate(-1758.201 77.318)" fill="#fff" opacity="0"/>
    <g id="icon" transform="translate(-1758.075 77)">
      <g id="Group_82" data-name="Group 82" clip-path="url(#clip-path)">
        <path id="Path_307" data-name="Path 307" d="M44.436,188.048H15.316a2.013,2.013,0,0,1-1.3-2.163c.055-.949-.005-1.9.021-2.856a.628.628,0,0,0-.446-.693,22.047,22.047,0,0,1-6.147-3.963A22.829,22.829,0,0,1,0,161.7,1.759,1.759,0,0,1,1.9,159.826q4.385,0,8.77,0c.224,0,.472.082.666-.116a.8.8,0,0,0,.554.126q3.683,0,7.366,0c.1,0,.238.056.319-.127-.922-1.6-1.856-3.208-2.785-4.822-.133-.232-.364-.27-.589-.33-1.24-.334-2.486-.644-3.715-1.015a1.711,1.711,0,0,1-1.15-2.131,1.786,1.786,0,0,1,2.055-1.226,1.9,1.9,0,0,0,.632.083l.049.051c0-.012,0-.029,0-.034a.141.141,0,0,0-.043-.018,14.834,14.834,0,0,0-1.3-2.331,1.838,1.838,0,0,1,.526-2.232,1.767,1.767,0,0,1,2.252.132,3.811,3.811,0,0,1,.622.91c.339.577.675,1.156,1,1.719.162-.046.148-.135.169-.2.369-1.243,1.237-1.842,2.253-1.555a1.848,1.848,0,0,1,1.146,2.533c-.3,1.084-.584,2.172-.888,3.255a.923.923,0,0,0,.074.776q1.8,3.092,3.579,6.2a.639.639,0,0,0,.638.378c2.454-.015,4.908-.011,7.361-.013q13.2,0,26.4,0a2.911,2.911,0,0,1,1.069.217c.524.2.63.71.937,1.067v2.1c-.231.294-.082.637-.124.956a23.727,23.727,0,0,1-2.843,8.6,23.173,23.173,0,0,1-6.1,6.926,19.914,19.914,0,0,1-4.352,2.564.9.9,0,0,0-.625,1.021c.044.813-.019,1.631.019,2.444a2.132,2.132,0,0,1-1.413,2.334M29.9,170.336H48.841c.195,0,.391.012.584-.007a1.74,1.74,0,0,0,1.4-2.462,1.849,1.849,0,0,0-1.89-1.066q-19,.01-38,.005a3.47,3.47,0,0,0-.525.012A1.613,1.613,0,0,0,8.981,167.9a1.772,1.772,0,0,0,1.8,2.434q9.558,0,19.117,0" transform="translate(0 -128.358)" fill="url(#linear-gradient)"/>
        <path id="Path_308" data-name="Path 308" d="M240.587,6.975a7,7,0,1,0,7-6.975,7.029,7.029,0,0,0-7,6.975m24.541,11.678a8.421,8.421,0,0,0-2.4-5.442,1.774,1.774,0,0,0-2.771-.045q-4.844,4.813-9.678,9.637a1.776,1.776,0,0,0,.039,2.767,8.833,8.833,0,0,0,9.556,1.676,8.993,8.993,0,0,0,5.257-8.592m-19.308,2.314a1.748,1.748,0,1,0-1.739-1.745,1.77,1.77,0,0,0,1.739,1.745" transform="translate(-212.39 0)" fill="#fefefe"/>
        <path id="Path_309" data-name="Path 309" d="M38.457,84.2a5.883,5.883,0,0,0-2.811-1.8A6.774,6.774,0,0,1,30.8,76.691a6.368,6.368,0,0,1,.674-4.012,1.021,1.021,0,0,0,.057-.925,8.705,8.705,0,0,1,8.642-11.889,8.442,8.442,0,0,1,6.346,3.265.947.947,0,0,0,.763.437,6.88,6.88,0,0,1,6.445,5.645,10.4,10.4,0,0,1-.125,3.08,5.729,5.729,0,0,0,.642,3.945c1.221,2.055,2.405,4.132,3.594,6.205a5.186,5.186,0,0,1,.75,1.878c-2.454,0-4.908,0-7.361.013a.639.639,0,0,1-.638-.378q-1.774-3.108-3.58-6.2a.923.923,0,0,1-.074-.776c.3-1.083.589-2.171.888-3.255.346-1.259-.093-2.236-1.146-2.533-1.016-.287-1.884.312-2.253,1.555-.021.069-.007.158-.169.2-.328-.563-.665-1.141-1-1.719a3.812,3.812,0,0,0-.622-.91,1.767,1.767,0,0,0-2.252-.132,1.838,1.838,0,0,0-.526,2.232,14.824,14.824,0,0,1,1.3,2.331l0,0a1.9,1.9,0,0,1-.632-.083A1.786,1.786,0,0,0,38.457,75.9a1.711,1.711,0,0,0,1.15,2.131c1.228.37,2.475.681,3.715,1.015.226.061.456.1.589.33.93,1.614,1.863,3.226,2.785,4.822-.081.183-.216.127-.319.127q-3.683.006-7.366,0a.8.8,0,0,1-.554-.126" transform="translate(-27.115 -52.855)" fill="url(#linear-gradient-2)"/>
        <path id="Path_310" data-name="Path 310" d="M96.709,332.359q-9.558,0-19.117,0a1.772,1.772,0,0,1-1.8-2.434,1.613,1.613,0,0,1,1.434-1.084,3.462,3.462,0,0,1,.525-.012q19,0,38-.005a1.849,1.849,0,0,1,1.89,1.066,1.741,1.741,0,0,1-1.4,2.462c-.193.019-.389.007-.584.007H96.709" transform="translate(-66.808 -290.381)" fill="#ba38fc"/>
        <path id="Path_311" data-name="Path 311" d="M119.7,187.323a.138.138,0,0,1,.043.018c.007.006,0,.022,0,.034l-.049-.051h0" transform="translate(-105.671 -165.423)" fill="#4edea3"/>
        <path id="Path_312" data-name="Path 312" d="M240.587,6.975a7,7,0,0,1,14,0,7,7,0,0,1-14,0" transform="translate(-212.39 0)" fill="url(#linear-gradient-3)"/>
        <path id="Path_313" data-name="Path 313" d="M333.268,113.239a8.993,8.993,0,0,1-5.258,8.592,8.833,8.833,0,0,1-9.556-1.676,1.776,1.776,0,0,1-.039-2.767q4.833-4.824,9.678-9.637a1.774,1.774,0,0,1,2.771.045,8.422,8.422,0,0,1,2.4,5.442" transform="translate(-280.53 -94.587)" fill="url(#linear-gradient-2)"/>
        <path id="Path_314" data-name="Path 314" d="M272.14,152.939a1.748,1.748,0,1,1,1.765-1.721,1.767,1.767,0,0,1-1.765,1.721" transform="translate(-238.71 -131.972)" fill="url(#linear-gradient-2)"/>
      </g>
    </g>
  </g>
</svg>
