<svg xmlns="http://www.w3.org/2000/svg" xmlns:xlink="http://www.w3.org/1999/xlink" width="41" height="41" viewBox="0 0 41 41">
  <defs>
    <linearGradient id="linear-gradient" x1="0.942" x2="0.5" y2="1" gradientUnits="objectBoundingBox">
      <stop offset="0" stop-color="#fff0ff"/>
      <stop offset="1" stop-color="#febdfa"/>
    </linearGradient>
    <linearGradient id="linear-gradient-2" x1="0.5" x2="0.5" y2="1" gradientUnits="objectBoundingBox">
      <stop offset="0" stop-color="#ed6bfd"/>
      <stop offset="1" stop-color="#ab29fc"/>
    </linearGradient>
    <clipPath id="clip-path">
      <rect id="Rectangle_32" data-name="Rectangle 32" width="10.35" height="11.367" stroke="rgba(0,0,0,0)" stroke-width="1" fill="url(#linear-gradient)"/>
    </clipPath>
  </defs>
  <g id="right" transform="translate(-155.239 11.761)">
    <circle id="Ellipse_16" data-name="Ellipse 16" cx="20" cy="20" r="20" transform="translate(155.739 -11.261)" stroke="rgba(0,0,0,0)" stroke-width="1" fill="url(#linear-gradient-2)"/>
    <g id="Group_93" data-name="Group 93" transform="translate(166.903 3.056)">
      <g id="Group_91" data-name="Group 91" transform="translate(0 0)" clip-path="url(#clip-path)">
        <path id="Path_465" data-name="Path 465" d="M.01,5.642c0-1.314,0-2.628,0-3.942A1.536,1.536,0,0,1,2.386.247q3.583,1.99,7.12,4.062a1.563,1.563,0,0,1-.07,2.809C7.458,8.273,5.464,9.4,3.475,10.539c-.38.217-.758.441-1.15.636A1.557,1.557,0,0,1,.006,9.742c-.013-1.367,0-2.733,0-4.1Z" transform="translate(0 0)" stroke="rgba(0,0,0,0)" stroke-width="1" fill="url(#linear-gradient)"/>
      </g>
    </g>
    <rect id="Rectangle_47" data-name="Rectangle 47" width="5" height="12" rx="2" transform="translate(179.575 2.739)" fill="url(#linear-gradient)"/>
  </g>
</svg>
