<svg xmlns="http://www.w3.org/2000/svg" xmlns:xlink="http://www.w3.org/1999/xlink" width="60" height="60" viewBox="0 0 60 60">
  <defs>
    <clipPath id="clip-path">
      <rect id="Rectangle_25" data-name="Rectangle 25" width="59.872" height="59.842" fill="none"/>
    </clipPath>
    <linearGradient id="linear-gradient" x1="0.5" x2="0.5" y2="1" gradientUnits="objectBoundingBox">
      <stop offset="0" stop-color="#ed6bfd"/>
      <stop offset="1" stop-color="#ab29fc"/>
    </linearGradient>
    <linearGradient id="linear-gradient-2" x1="0.942" x2="0.5" y2="1" gradientUnits="objectBoundingBox">
      <stop offset="0" stop-color="#fff0ff"/>
      <stop offset="1" stop-color="#febdfa"/>
    </linearGradient>
  </defs>
  <g id="yoga-icon" transform="translate(2305 -128)">
    <path id="background" d="M0,0H60V60H0Z" transform="translate(-2305 128)" fill="#fff" opacity="0"/>
    <g id="icon" transform="translate(-2305 128.158)">
      <g id="icon-2" data-name="icon" clip-path="url(#clip-path)">
        <path id="Path_327" data-name="Path 327" d="M59.915,4.427V41.37a1.131,1.131,0,0,0-.1.2,5.25,5.25,0,0,1-5.4,4.245q-24.457,0-48.914,0A5.257,5.257,0,0,1,.049,40.373Q.051,22.9.063,5.429a5.9,5.9,0,0,1,.183-1.5A5.266,5.266,0,0,1,5.544,0Q29.913,0,54.283,0c.195,0,.39,0,.584.007A5.262,5.262,0,0,1,59.7,3.844c.056.2.015.436.211.583M7.083,11.788c-.01.253-.028.505-.027.758q.009,12.038.023,24.075c0,1.524.641,2.166,2.161,2.166H50.731c1.519,0,2.159-.642,2.16-2.166q.012-12.067.023-24.133c0-.233-.018-.466-.028-.7.005-.876.027-1.753.013-2.629a1.948,1.948,0,0,0-2.173-2.178q-20.745.034-41.49.014c-.175,0-.351-.005-.526,0A1.663,1.663,0,0,0,7.07,8.691c-.01,1.032.008,2.064.013,3.1" transform="translate(-0.043 0.001)" fill="url(#linear-gradient)"/>
        <path id="Path_332" data-name="Path 332" d="M112.7,37.783,59.865,45.144c-.01.253-.028.505-.027.758q.009,12.038.023,24.075c0,1.524.641,2.166,2.161,2.166h41.492c1.519,0,2.159-.642,2.16-2.166q.012-12.067.023-24.133c0-.233-.018-.466-.028-.7.005-.876.027-1.753.013-2.629a1.948,1.948,0,0,0-2.173-2.178q-20.745.034-41.49.014c-.175,0-.351-.005-.526,0a1.663,1.663,0,0,0-1.64,1.692c-.01,1.032.008,2.064.013,3.1" transform="translate(-52.826 -33.355)" fill="url(#linear-gradient-2)"/>
        <path id="Path_328" data-name="Path 328" d="M219.32,452.83a2.142,2.142,0,0,1-2.231,1.313q-17.209-.035-34.418-.009a1.88,1.88,0,0,1-1.826-.909,1.756,1.756,0,0,1,1.358-2.617,6.38,6.38,0,0,1,.642-.01q17.121,0,34.242-.015a2.143,2.143,0,0,1,2.232,1.312Z" transform="translate(-159.448 -397.781)" fill="url(#linear-gradient)"/>
        <path id="Path_329" data-name="Path 329" d="M61.6,424.381a6.264,6.264,0,0,1,1.935-2.5,5.261,5.261,0,1,1,4.156,9.423,1.934,1.934,0,0,0-.268.1H65.788a6.279,6.279,0,0,1-3.052-1.687,7.47,7.47,0,0,1-1.13-1.812,7.626,7.626,0,0,1,0-3.525" transform="translate(-54.203 -371.562)" fill="url(#linear-gradient-2)"/>
        <path id="Path_331" data-name="Path 331" d="M7.4,450.706a7.626,7.626,0,0,0,0,3.524c-1.83,0-3.659.007-5.489,0a1.77,1.77,0,1,1,0-3.528c1.83-.005,3.659,0,5.489,0" transform="translate(0 -397.886)" fill="url(#linear-gradient)"/>
        <g id="Group_87" data-name="Group 87" transform="translate(17.338 11.468)">
          <path id="Path_333" data-name="Path 333" d="M25.2,16.462v.386a1.829,1.829,0,0,1-.69.7,14.336,14.336,0,0,1-5.028,2.518c-.353.09-.715.143-1.073.214H17.078a2.029,2.029,0,0,0-.541-.116A7.184,7.184,0,0,1,12.774,18c-.148-.154-.213-.138-.351.005a7.3,7.3,0,0,1-3.544,2.112c-.266.066-.537.111-.806.166H6.744c-.019-.013-.037-.036-.058-.039a10.971,10.971,0,0,1-4-1.4A17.066,17.066,0,0,1,.333,17.271a.739.739,0,0,1,.018-1.246,19.069,19.069,0,0,1,3-1.887c.08.034.119.108.17.17a8.057,8.057,0,0,0,2.256,1.943A9.694,9.694,0,0,0,9.993,17.5a10.4,10.4,0,0,0,2.415-.093c-.066-.047-.1-.077-.143-.1a10.312,10.312,0,0,1-2.977-2.633A8.352,8.352,0,0,1,7.53,8.187a11.758,11.758,0,0,1,.736-2.645A16.43,16.43,0,0,1,11.922.363c.5-.487.85-.482,1.361,0a17.285,17.285,0,0,1,2.011,2.327,15.163,15.163,0,0,1,1.639,2.849c.021.061.041.122.064.181a9.437,9.437,0,0,1,.7,4.7,8.763,8.763,0,0,1-2.333,4.9,9.931,9.931,0,0,1-2.62,2.089,10.859,10.859,0,0,0,4.426-.239,8,8,0,0,0,4.294-2.609,1.445,1.445,0,0,1,.384-.423,19.428,19.428,0,0,1,2.774,1.715,1.619,1.619,0,0,1,.57.609" transform="translate(0 0)" fill="url(#linear-gradient)"/>
          <path id="Path_334" data-name="Path 334" d="M262.674,86.015c.388-.151.774-.306,1.164-.452a15.966,15.966,0,0,1,3.547-.849,12.688,12.688,0,0,1,1.783-.145.768.768,0,0,1,.781.711,15.623,15.623,0,0,1-.468,5.328,10.656,10.656,0,0,1-1.821,3.873.773.773,0,0,0-.066.127,1.445,1.445,0,0,0-.384.423,8,8,0,0,1-4.294,2.609,10.86,10.86,0,0,1-4.426.239,9.928,9.928,0,0,0,2.62-2.089,8.763,8.763,0,0,0,2.333-4.9,9.437,9.437,0,0,0-.7-4.7c-.024-.06-.043-.121-.064-.181" transform="translate(-245.741 -80.472)" opacity="0.586" fill="url(#linear-gradient)"/>
          <path id="Path_335" data-name="Path 335" d="M21.4,94.659c-.183-.275-.372-.547-.548-.826a12.18,12.18,0,0,1-1.669-4.756,16.993,16.993,0,0,1-.189-3c.007-.264.025-.53.056-.792a.749.749,0,0,1,.774-.662,17.488,17.488,0,0,1,4.258.64,21.885,21.885,0,0,1,2.236.8,11.755,11.755,0,0,0-.736,2.645,8.352,8.352,0,0,0,1.757,6.486,10.311,10.311,0,0,0,2.977,2.633c.041.024.078.054.143.1a10.4,10.4,0,0,1-2.415.093,9.694,9.694,0,0,1-4.219-1.248,8.057,8.057,0,0,1-2.256-1.943c-.051-.062-.089-.136-.17-.17" transform="translate(-18.048 -80.52)" opacity="0.586" fill="url(#linear-gradient)"/>
        </g>
      </g>
    </g>
  </g>
</svg>
